<svg width="36" height="37" viewBox="0 0 36 37" fill="none" xmlns="http://www.w3.org/2000/svg">
<path fill-rule="evenodd" clip-rule="evenodd" d="M17.9737 1.60742C9.96919 1.60742 3.66861 7.05364 3.66861 13.5564C3.66861 20.0591 9.96919 25.5053 17.9737 25.5053C25.9812 25.5053 32.2803 20.0591 32.2803 13.5564C32.2803 7.05364 25.9812 1.60742 17.9737 1.60742ZM2.41861 13.5564C2.41861 6.17068 9.48866 0.357422 17.9737 0.357422C26.4617 0.357422 33.5303 6.17068 33.5303 13.5564C33.5303 20.9421 26.4617 26.7553 17.9737 26.7553C9.48866 26.7553 2.41861 20.9421 2.41861 13.5564ZM5.32975 24.9954C5.62517 25.1739 5.71992 25.5581 5.54138 25.8535L2.54789 30.8067L7.97406 29.3163C8.28216 29.2317 8.60447 29.393 8.72131 29.6904L10.5384 34.3148L13.6895 29.1007C13.8681 28.8053 14.2523 28.7105 14.5477 28.8891C14.8431 29.0676 14.9379 29.4518 14.7593 29.7472L10.954 36.0437C10.8311 36.2472 10.6032 36.3633 10.3663 36.3432C10.1294 36.3231 9.92439 36.1703 9.83743 35.949L7.76337 30.6705L1.36812 32.4271C1.12147 32.4948 0.858438 32.4054 0.704127 32.2015C0.549816 31.9975 0.535376 31.72 0.667675 31.5011L4.47158 25.207C4.65012 24.9116 5.03434 24.8168 5.32975 24.9954ZM31.4768 25.207C31.2983 24.9116 30.9141 24.8168 30.6187 24.9954C30.3232 25.1739 30.2285 25.5581 30.407 25.8535L33.4005 30.8067L27.9744 29.3163C27.6663 29.2317 27.344 29.393 27.2271 29.6904L25.41 34.3148L22.2588 29.1007C22.0803 28.8053 21.6961 28.7105 21.4006 28.8891C21.1052 29.0676 21.0105 29.4518 21.189 29.7472L24.9943 36.0437C25.1173 36.2472 25.3451 36.3633 25.582 36.3432C25.819 36.3231 26.024 36.1703 26.1109 35.949L28.185 30.6705L34.5802 32.4271C34.8269 32.4948 35.0899 32.4054 35.2442 32.2015C35.3985 31.9975 35.413 31.72 35.2807 31.5011L31.4768 25.207Z" fill="#231F20"/>
</svg>
