<svg width="37" height="37" viewBox="0 0 37 37" fill="none" xmlns="http://www.w3.org/2000/svg">
<path fill-rule="evenodd" clip-rule="evenodd" d="M1.88172 0.630859C1.53654 0.630859 1.25672 0.910681 1.25672 1.25586V25.4866C1.25672 25.8318 1.53654 26.1116 1.88172 26.1116C2.2269 26.1116 2.50672 25.8318 2.50672 25.4866V1.88086H26.9396C27.2123 1.88086 27.6742 2.17886 27.8457 2.99758L28.2197 5.24444H22.8188C22.4737 5.24444 22.1938 5.52426 22.1938 5.86944V15.0252C22.1938 15.3703 22.4737 15.6502 22.8188 15.6502H30.3271L33.8755 17.4998C34.1709 17.7612 34.4146 18.2944 34.4146 18.9547V25.4866C34.4146 25.8318 34.6944 26.1116 35.0396 26.1116C35.3848 26.1116 35.6646 25.8318 35.6646 25.4866V18.9547C35.6646 18.0001 35.3052 17.035 34.6113 16.4863C34.5805 16.4619 34.5474 16.4405 34.5125 16.4223L31.0469 14.6157L29.5781 5.79242C29.5759 5.77467 29.573 5.75716 29.5694 5.7399L29.0767 2.78015C29.0754 2.77246 29.074 2.76479 29.0724 2.75716C28.8464 1.656 28.0726 0.630859 26.9396 0.630859H1.88172ZM28.4278 6.49444H23.4438V14.4002H29.7438L28.4278 6.49444ZM19.0857 5.87214C19.0857 5.52696 18.8058 5.24714 18.4607 5.24714C18.1155 5.24714 17.8357 5.52696 17.8357 5.87214V25.4869C17.8357 25.8321 18.1155 26.1119 18.4607 26.1119C18.8058 26.1119 19.0857 25.8321 19.0857 25.4869V5.87214ZM32.1478 29.4766C32.0476 28.0172 31.5995 26.6867 30.9035 25.6697C30.1114 24.5121 28.9531 23.7082 27.5972 23.7082C26.2408 23.7082 25.0822 24.512 24.2898 25.6697C23.5936 26.6867 23.1456 28.0172 23.0454 29.4766H13.8753C13.7752 28.0173 13.3274 26.6868 12.6315 25.6698C11.8394 24.5121 10.6811 23.7082 9.32468 23.7082C7.96828 23.7082 6.8097 24.512 6.01731 25.6697C5.32115 26.6867 4.87309 28.0172 4.77289 29.4766H1.09186C0.746681 29.4766 0.466858 29.7564 0.466858 30.1016C0.466858 30.4467 0.746681 30.7266 1.09186 30.7266H4.77285C4.87297 32.1862 5.32105 33.5169 6.0173 34.5341C6.8097 35.6918 7.96828 36.4956 9.32468 36.4956C10.6811 36.4956 11.8394 35.6917 12.6315 34.534C13.3275 33.5168 13.7753 32.1861 13.8753 30.7266H23.0453C23.1455 32.1862 23.5935 33.5169 24.2898 34.5341C25.0822 35.6918 26.2408 36.4956 27.5972 36.4956C28.9531 36.4956 30.1114 35.6916 30.9035 34.5341C31.5996 33.5169 32.0477 32.1862 32.1478 30.7266H35.8293C36.1745 30.7266 36.4543 30.4467 36.4543 30.1016C36.4543 29.7564 36.1745 29.4766 35.8293 29.4766H32.1478ZM30.9191 30.078C30.9188 30.0858 30.9186 30.0937 30.9186 30.1016L30.9187 30.1117L30.9191 30.1252C30.9148 31.5993 30.5031 32.9059 29.872 33.8281C29.2354 34.7583 28.4202 35.2456 27.5972 35.2456C26.7734 35.2456 25.9579 34.7582 25.3213 33.8281C24.6927 32.9097 24.2818 31.6103 24.2741 30.1438C24.2751 30.1298 24.2755 30.1157 24.2755 30.1016C24.2755 30.0874 24.2751 30.0733 24.2741 30.0594C24.2819 28.5931 24.6928 27.294 25.3213 26.3757C25.9579 25.4456 26.7734 24.9582 27.5972 24.9582C28.4202 24.9582 29.2354 25.4455 29.872 26.3757C30.503 27.2978 30.9147 28.6041 30.9191 30.078ZM12.6466 30.0736C12.6462 30.0829 12.646 30.0922 12.646 30.1016C12.646 30.1109 12.6462 30.1203 12.6466 30.1295C12.6415 31.602 12.2303 32.9068 11.5999 33.8282C10.9635 34.7582 10.1483 35.2456 9.32468 35.2456C8.50096 35.2456 7.68545 34.7582 7.04881 33.8281C6.41421 32.901 6.00153 31.5855 6.00153 30.1018C6.00153 28.6182 6.4142 27.3028 7.0488 26.3757C7.68545 25.4456 8.50096 24.9582 9.32468 24.9582C10.1483 24.9582 10.9635 25.4456 11.5999 26.3756C12.2302 27.2968 12.6414 28.6015 12.6466 30.0736ZM10.8049 30.1016C10.8049 31.2958 10.1417 32.265 9.32467 32.265C8.50756 32.265 7.8444 31.2958 7.8444 30.1016C7.8444 28.9073 8.50756 27.9381 9.32467 27.9381C10.1417 27.9381 10.8049 28.9073 10.8049 30.1016ZM29.077 30.1016C29.077 31.2958 28.4138 32.265 27.5967 32.265C26.7796 32.265 26.1164 31.2958 26.1164 30.1016C26.1164 28.9073 26.7796 27.9381 27.5967 27.9381C28.4138 27.9381 29.077 28.9073 29.077 30.1016Z" fill="#231F20"/>
</svg>
