<svg width="37" height="35" viewBox="0 0 37 35" fill="none" xmlns="http://www.w3.org/2000/svg">
<path fill-rule="evenodd" clip-rule="evenodd" d="M8.19755 0.390625C7.85237 0.390625 7.57255 0.670447 7.57255 1.01562V13.5156C7.57255 19.5934 12.0849 24.6142 17.8354 24.9558V33.7236H9.7923C9.44712 33.7236 9.1673 34.0034 9.1673 34.3486C9.1673 34.6938 9.44712 34.9736 9.7923 34.9736H18.4248C18.4366 34.9743 18.4485 34.9746 18.4604 34.9746C18.4724 34.9746 18.4843 34.9743 18.4961 34.9736H27.1292C27.4743 34.9736 27.7542 34.6938 27.7542 34.3486C27.7542 34.0034 27.4743 33.7236 27.1292 33.7236H19.0854V24.9559C24.8355 24.6149 29.3485 19.5938 29.3485 13.5156V1.01562C29.3485 0.670447 29.0687 0.390625 28.7235 0.390625H8.19755ZM8.82255 13.5156V1.64062H28.0985V13.5156C28.0985 19.1865 23.7521 23.7243 18.4611 23.7243C13.1688 23.7243 8.82255 19.1864 8.82255 13.5156ZM3.03676 3.90527C1.54015 3.90527 0.467285 5.26539 0.467285 6.75903V6.76277C0.467285 11.3796 2.43864 15.646 5.5207 18.4396C5.77645 18.6714 6.1717 18.652 6.40352 18.3963C6.63534 18.1405 6.61593 17.7453 6.36018 17.5134C3.5425 14.9595 1.71729 11.0308 1.71729 6.76277V6.75903C1.71729 5.79016 2.3852 5.15527 3.03676 5.15527H5.03926C5.38443 5.15527 5.66426 4.87545 5.66426 4.53027C5.66426 4.1851 5.38443 3.90527 5.03926 3.90527H3.03676ZM31.8816 3.90527C31.5364 3.90527 31.2566 4.1851 31.2566 4.53027C31.2566 4.87545 31.5364 5.15527 31.8816 5.15527H33.8853C34.5354 5.15527 35.2036 5.78988 35.2036 6.75903V6.76277C35.2036 11.0308 33.3784 14.9595 30.5607 17.5134C30.3049 17.7453 30.2855 18.1405 30.5173 18.3963C30.7491 18.652 31.1444 18.6714 31.4001 18.4396C34.4822 15.646 36.4536 11.3796 36.4536 6.76277V6.75903C36.4536 5.26567 35.381 3.90527 33.8853 3.90527H31.8816Z" fill="#231F20"/>
</svg>
