<svg width="79" height="80" viewBox="0 0 79 80" fill="none" xmlns="http://www.w3.org/2000/svg">
<g clip-path="url(#clip0_6910_47)">
<path d="M52.9878 1.61963H26.0122C12.1782 1.61963 0.96344 12.8343 0.96344 26.6684V53.644C0.96344 67.4781 12.1782 78.6928 26.0122 78.6928H52.9878C66.8219 78.6928 78.0366 67.4781 78.0366 53.644V26.6684C78.0366 12.8343 66.8219 1.61963 52.9878 1.61963Z" stroke="#2468FF" stroke-width="2"/>
<path d="M22.1519 36.3538V31.5849C22.1519 26.2091 26.1789 21.8516 31.1453 21.8516H47.6149C52.5813 21.8516 56.6074 26.2091 56.6074 31.5849V36.3538" stroke="#2468FF" stroke-width="2" stroke-linecap="round" stroke-linejoin="round"/>
<path d="M22.1519 40.4976V49.4111C22.1519 54.786 26.1789 59.1444 31.1453 59.1444H47.6149C52.5813 59.1444 56.6074 54.786 56.6074 49.4111V40.4976" stroke="#2468FF" stroke-width="2" stroke-linecap="round" stroke-linejoin="round"/>
<path d="M26.5085 31.6387L22.1519 36.3547L17.7953 31.6387" stroke="#2468FF" stroke-width="2" stroke-linecap="round" stroke-linejoin="round"/>
<path d="M52.2519 45.2126L56.6085 40.498L60.9651 45.2126" stroke="#2468FF" stroke-width="2" stroke-linecap="round" stroke-linejoin="round"/>
</g>
<defs>
<clipPath id="clip0_6910_47">
<rect width="79" height="79" fill="white" transform="translate(0 0.65625)"/>
</clipPath>
</defs>
</svg>
