<svg width="79" height="80" viewBox="0 0 79 80" fill="none" xmlns="http://www.w3.org/2000/svg">
<g clip-path="url(#clip0_6910_34)">
<path d="M30.807 38.8553L36.5536 44.5876L48.4411 32.7305" stroke="#2468FF" stroke-width="2" stroke-linecap="round" stroke-linejoin="round"/>
<path fill-rule="evenodd" clip-rule="evenodd" d="M40.8363 66.6019C45.532 64.0103 62.2819 52.694 62.9399 22.8571C62.963 21.7781 62.2867 20.7732 61.2636 20.4196C54.9108 18.2308 47.5224 16.9639 39.6205 16.9639H39.6282C31.7282 16.9639 24.3388 18.2308 17.9851 20.4196C16.961 20.7732 16.2846 21.7781 16.3087 22.8571C16.9677 52.694 33.7176 64.0103 38.4114 66.6009C38.7822 66.8079 39.1997 66.9165 39.6243 66.9165C40.0489 66.9165 40.4665 66.8079 40.8373 66.6009L40.8363 66.6019Z" stroke="#2468FF" stroke-width="2" stroke-linecap="round" stroke-linejoin="round"/>
<path d="M52.9878 1.61963H26.0122C12.1782 1.61963 0.96344 12.8343 0.96344 26.6684V53.644C0.96344 67.4781 12.1782 78.6928 26.0122 78.6928H52.9878C66.8219 78.6928 78.0366 67.4781 78.0366 53.644V26.6684C78.0366 12.8343 66.8219 1.61963 52.9878 1.61963Z" stroke="#2468FF" stroke-width="2"/>
</g>
<defs>
<clipPath id="clip0_6910_34">
<rect width="79" height="79" fill="white" transform="translate(0 0.65625)"/>
</clipPath>
</defs>
</svg>
