<svg width="79" height="80" viewBox="0 0 79 80" fill="none" xmlns="http://www.w3.org/2000/svg">
<g clip-path="url(#clip0_6910_13)">
<path d="M58.431 47.719C58.431 43.1264 54.7132 39.4028 50.1283 39.4028H41.0664L39.8092 23.1211C39.749 22.3897 39.4088 21.7098 38.8595 21.2231C38.3102 20.7365 37.5943 20.4806 36.861 20.509C36.1277 20.5373 35.4336 20.8476 34.9235 21.3752C34.4134 21.9028 34.1267 22.6069 34.1231 23.3407L34.1482 56.0361L28.3677 50.9753C27.2805 50.0225 25.8916 49.4845 24.4463 49.4563C23.001 49.4281 21.5922 49.9115 20.4686 50.8211C20.4686 50.8211 30.598 63.201 37.8438 66.6356" stroke="#2468FF" stroke-width="2" stroke-linecap="round" stroke-linejoin="round"/>
<path d="M27.4177 28.7232V19.8444C27.4167 18.3968 27.9907 17.0081 29.0135 15.9837C30.0363 14.9593 31.424 14.3831 32.8716 14.3818H41.0529C41.7697 14.3825 42.4792 14.5243 43.1412 14.7991C43.8031 15.074 44.4044 15.4765 44.9107 15.9838C45.4171 16.491 45.8186 17.093 46.0923 17.7554C46.3659 18.4178 46.5065 19.1277 46.5059 19.8444V28.7232" stroke="#2468FF" stroke-width="2" stroke-linecap="round" stroke-linejoin="round"/>
<path d="M52.9878 1.61963H26.0122C12.1781 1.61963 0.963379 12.8343 0.963379 26.6684V53.644C0.963379 67.4781 12.1781 78.6928 26.0122 78.6928H52.9878C66.8218 78.6928 78.0365 67.4781 78.0365 53.644V26.6684C78.0365 12.8343 66.8218 1.61963 52.9878 1.61963Z" stroke="#2468FF" stroke-width="2"/>
</g>
<defs>
<clipPath id="clip0_6910_13">
<rect width="79" height="79" fill="white" transform="translate(0 0.65625)"/>
</clipPath>
</defs>
</svg>
