<svg width="79" height="80" viewBox="0 0 79 80" fill="none" xmlns="http://www.w3.org/2000/svg">
<path d="M52.9878 2.0083H26.0122C12.1782 2.0083 0.96344 13.0879 0.96344 26.7553V53.4059C0.96344 67.0733 12.1782 78.1529 26.0122 78.1529H52.9878C66.8219 78.1529 78.0366 67.0733 78.0366 53.4059V26.7553C78.0366 13.0879 66.8219 2.0083 52.9878 2.0083Z" stroke="#0C0B0B"/>
<path fill-rule="evenodd" clip-rule="evenodd" d="M54.5698 54.9686C46.2748 63.1646 32.8236 63.1646 24.5276 54.9686C16.2307 46.7735 16.2307 33.4844 24.5276 25.2883C32.8226 17.0914 46.2748 17.0914 54.5698 25.2883C62.8657 33.4834 62.8657 46.7735 54.5698 54.9686Z" stroke="#0C0B0B" stroke-width="1.575" stroke-linecap="round" stroke-linejoin="round"/>
<path fill-rule="evenodd" clip-rule="evenodd" d="M45.9858 50.3038C45.1425 51.1485 44.1384 51.82 43.0313 52.2797C41.9243 52.7394 40.7361 52.9782 39.5352 52.9823C38.3343 52.9864 37.1445 52.7557 36.0343 52.3036C34.924 51.8514 33.9153 51.1868 33.0661 50.3479C32.217 49.5089 31.5442 48.5124 31.0866 47.4155C30.6289 46.3186 30.3954 45.1431 30.3996 43.9567C30.4037 42.7703 30.6454 41.5964 31.1107 40.5027C31.576 39.409 32.2557 38.417 33.1107 37.5839C34.8221 35.9163 37.1315 34.985 39.5352 34.9932C41.9389 35.0014 44.2418 35.9484 45.9415 37.6276C47.6412 39.3068 48.5997 41.582 48.608 43.9567C48.6163 46.3315 47.6737 48.6131 45.9858 50.3038Z" stroke="#0C0B0B" stroke-width="1.575" stroke-linecap="round" stroke-linejoin="round"/>
<path d="M39.5482 40.9468V46.9432" stroke="#0C0B0B" stroke-width="1.575" stroke-linecap="round" stroke-linejoin="round"/>
<path fill-rule="evenodd" clip-rule="evenodd" d="M41.6947 29.1121C41.1236 29.666 40.3543 29.9747 39.554 29.9711C38.7537 29.9675 37.9872 29.6518 37.4213 29.0927C36.8554 28.5336 36.5359 27.7764 36.5322 26.9858C36.5285 26.1951 36.841 25.435 37.4017 24.8708C37.9728 24.3169 38.7422 24.0081 39.5425 24.0118C40.3428 24.0154 41.1092 24.3311 41.6751 24.8901C42.241 25.4492 42.5606 26.2065 42.5642 26.9971C42.5679 27.7878 42.2554 28.5479 41.6947 29.1121V29.1121Z" stroke="#0C0B0B" stroke-width="1.575" stroke-linecap="round" stroke-linejoin="round"/>
</svg>
