<svg width="107" height="49" viewBox="0 0 107 49" fill="none" xmlns="http://www.w3.org/2000/svg">
<g clip-path="url(#clip0_1_17)">
<path d="M39.5746 46.4138C37.0979 48.1083 34.1699 49.0098 31.1749 49C27.3871 49.0203 23.7288 47.6147 20.9184 45.0594C20.6994 44.8636 20.9184 44.6026 21.1454 44.7494C23.8708 46.3295 26.9224 47.2541 30.0617 47.4508C33.201 47.6475 36.3431 47.1111 39.2422 45.8834C39.6314 45.7203 39.9476 46.1364 39.5746 46.4138Z" fill="black"/>
<path d="M40.5233 45.3287C40.2315 44.9534 38.6018 45.1492 37.8639 45.2389C37.645 45.2389 37.6126 45.0758 37.8072 44.9289C39.1126 44.0151 41.2449 44.2762 41.4882 44.5862C41.7314 44.8963 41.4233 47.0338 40.2071 48.0699C40.0207 48.2249 39.8423 48.1434 39.9234 47.9394C40.199 47.2459 40.8071 45.704 40.5233 45.3287ZM37.9207 38.4429V37.5455C37.9196 37.5151 37.9247 37.4849 37.9357 37.4567C37.9467 37.4285 37.9634 37.4028 37.9847 37.3814C38.006 37.3599 38.0315 37.3431 38.0595 37.3321C38.0876 37.321 38.1176 37.3159 38.1477 37.317H42.1044C42.1345 37.3159 42.1645 37.321 42.1926 37.3321C42.2206 37.3431 42.2461 37.3599 42.2674 37.3814C42.2888 37.4028 42.3054 37.4285 42.3164 37.4567C42.3274 37.4849 42.3325 37.5151 42.3314 37.5455V38.3124C42.3314 38.4429 42.226 38.6061 42.0314 38.8753L39.972 41.8368C40.7588 41.7906 41.5433 41.9598 42.2422 42.3263C42.3038 42.3602 42.3557 42.4096 42.3926 42.4696C42.4296 42.5297 42.4504 42.5984 42.453 42.669V43.6235C42.453 43.7541 42.3071 43.9091 42.1611 43.8275C41.512 43.4898 40.7919 43.3136 40.0612 43.3136C39.3305 43.3136 38.6104 43.4898 37.9612 43.8275C37.8234 43.9009 37.6775 43.7541 37.6775 43.6235V42.7424C37.6635 42.5283 37.7144 42.3149 37.8234 42.1305L40.2233 38.6632H38.1477C38.1183 38.6643 38.089 38.6594 38.0615 38.6488C38.034 38.6382 38.0089 38.6222 37.9877 38.6016C37.9665 38.581 37.9496 38.5564 37.9381 38.5291C37.9266 38.5018 37.9207 38.4725 37.9207 38.4429ZM45.7854 38.4837C44.8935 38.4837 44.8367 39.7075 44.8367 40.4662C44.8367 41.2249 44.8367 42.8566 45.7773 42.8566C46.7178 42.8566 46.7583 41.5431 46.7583 40.7436C46.776 40.1934 46.7132 39.6436 46.5718 39.1119C46.5346 38.9283 46.4312 38.765 46.2815 38.6535C46.1318 38.5421 45.9464 38.4903 45.761 38.5082L45.7854 38.4837ZM45.7854 37.2028C47.5772 37.2028 48.5502 38.7611 48.5502 40.7273C48.5502 42.6935 47.4799 44.1457 45.7854 44.1457C44.0908 44.1457 43.0611 42.5956 43.0611 40.662C43.0611 38.7284 44.0341 37.2028 45.7854 37.2028ZM35.9667 43.9988C35.9242 44.0256 35.875 44.0398 35.8248 44.0398C35.7746 44.0398 35.7255 44.0256 35.6829 43.9988C35.4072 43.7676 35.1716 43.4919 34.9856 43.183C34.748 43.4808 34.4428 43.7169 34.0958 43.8716C33.7488 44.0263 33.37 44.0951 32.9911 44.0723C32.7429 44.0865 32.4946 44.0464 32.2633 43.9548C32.0321 43.8631 31.8233 43.7221 31.6514 43.5414C31.4795 43.3607 31.3486 43.1446 31.2678 42.9081C31.1869 42.6715 31.158 42.4202 31.183 42.1713C31.1703 41.7468 31.287 41.3285 31.5174 40.9726C31.7479 40.6167 32.0811 40.3404 32.4722 40.1807C33.2086 39.9357 33.9755 39.7956 34.7505 39.7646C34.7869 39.4097 34.7368 39.0513 34.6046 38.7203C34.522 38.6193 34.4179 38.5383 34.3 38.4832C34.1821 38.4281 34.0535 38.4004 33.9235 38.4021C33.7031 38.3863 33.4843 38.4499 33.3061 38.5814C33.1279 38.7129 33.0019 38.9038 32.9506 39.12C32.9506 39.2587 32.8289 39.3648 32.7235 39.3566L31.5641 39.2669C31.5351 39.262 31.5074 39.2513 31.4827 39.2354C31.4579 39.2195 31.4365 39.1988 31.4199 39.1744C31.4032 39.1501 31.3916 39.1226 31.3858 39.0936C31.3799 39.0647 31.3799 39.0348 31.3857 39.0058C31.6533 37.5781 32.9425 37.1457 34.0938 37.1457C34.754 37.1211 35.4012 37.3353 35.9181 37.7494C36.5018 38.3042 36.4451 39.0466 36.4451 39.8461V41.7471C36.4489 42.1683 36.6145 42.5718 36.9072 42.873C36.9483 42.9156 36.9713 42.9727 36.9713 43.0321C36.9713 43.0915 36.9483 43.1485 36.9072 43.1911L35.9748 44.007L35.9667 43.9988ZM34.7505 41.0291C34.7941 41.4743 34.7155 41.9229 34.5235 42.3263C34.4479 42.4817 34.3334 42.6146 34.1912 42.7119C34.049 42.8092 33.8841 42.8675 33.7127 42.8811C33.2424 42.8811 32.9749 42.5221 32.9749 41.9918C32.9749 40.9557 33.8992 40.7681 34.7748 40.7681V41.0291H34.7505ZM20.1076 43.9988C20.0651 44.0256 20.0159 44.0398 19.9658 44.0398C19.9156 44.0398 19.8664 44.0256 19.8239 43.9988C19.5482 43.7676 19.3125 43.4919 19.1266 43.183C18.8859 43.4772 18.5802 43.7109 18.2339 43.8652C17.8877 44.0196 17.5104 44.0905 17.132 44.0723C16.8888 44.0823 16.6463 44.0403 16.4204 43.9489C16.1946 43.8576 15.9906 43.719 15.822 43.5424C15.6534 43.3657 15.5239 43.1551 15.4423 42.9244C15.3606 42.6936 15.3286 42.4481 15.3483 42.204C15.3344 41.7792 15.4506 41.3603 15.6812 41.0042C15.9118 40.6482 16.2456 40.372 16.6375 40.2133C17.3739 39.9683 18.1408 39.8282 18.9158 39.7972C18.9524 39.4416 18.8994 39.0825 18.7617 38.7529C18.6829 38.6497 18.5807 38.567 18.4636 38.5116C18.3466 38.4563 18.218 38.4299 18.0888 38.4347C17.868 38.4173 17.6484 38.4802 17.4698 38.6119C17.2913 38.7437 17.1656 38.9356 17.1158 39.1527C17.1158 39.2914 16.9942 39.3974 16.8888 39.3893L15.7294 39.2669C15.7004 39.262 15.6727 39.2513 15.6479 39.2354C15.6231 39.2195 15.6018 39.1988 15.5851 39.1744C15.5685 39.1501 15.5569 39.1226 15.551 39.0936C15.5452 39.0647 15.5452 39.0348 15.551 39.0058C15.8186 37.5781 17.1077 37.1457 18.259 37.1457C18.9169 37.1202 19.5619 37.3346 20.0752 37.7494C20.6671 38.3042 20.6103 39.0466 20.6103 39.8461V41.7471C20.6065 42.1607 20.7536 42.5613 21.0238 42.873C21.0452 42.8935 21.0622 42.9182 21.0738 42.9456C21.0854 42.9729 21.0913 43.0023 21.0913 43.0321C21.0913 43.0618 21.0854 43.0912 21.0738 43.1185C21.0622 43.1459 21.0452 43.1706 21.0238 43.1911L20.0914 44.007L20.1076 43.9988ZM18.8915 41.0291C18.935 41.4743 18.8565 41.9229 18.6644 42.3263C18.5882 42.4812 18.4735 42.6137 18.3315 42.7109C18.1894 42.8081 18.0248 42.8667 17.8536 42.8811C17.3915 42.8811 17.1239 42.5221 17.1239 41.9918C17.1239 40.9557 18.0482 40.7681 18.9239 40.7681V41.0291H18.8915ZM23.6427 40.4825C23.6427 39.7564 23.6427 38.7611 24.4535 38.7611C25.2643 38.7611 25.1913 39.7809 25.1913 40.4825V43.7949C25.1913 43.8519 25.2132 43.9067 25.2525 43.9478C25.2918 43.9889 25.3455 44.013 25.4021 44.0151H26.6102C26.64 44.0162 26.6697 44.0114 26.6977 44.0009C26.7257 43.9904 26.7513 43.9745 26.7731 43.9541C26.795 43.9336 26.8126 43.909 26.825 43.8817C26.8374 43.8544 26.8443 43.8249 26.8453 43.7949V40.4825C26.8208 40.0792 26.8591 39.6746 26.9588 39.2832C27.0168 39.1365 27.1158 39.0098 27.2439 38.9185C27.372 38.8273 27.5236 38.7754 27.6804 38.7692C27.8459 38.7459 28.0139 38.7895 28.1476 38.8904C28.2813 38.9912 28.3698 39.1413 28.3939 39.3077C28.4225 39.6988 28.4225 40.0914 28.3939 40.4825V43.7949C28.3959 43.8526 28.4196 43.9075 28.4603 43.9484C28.5009 43.9893 28.5554 44.0131 28.6128 44.0151H29.8209C29.8507 44.0162 29.8805 44.0114 29.9084 44.0009C29.9364 43.9904 29.962 43.9745 29.9839 43.9541C30.0057 43.9336 30.0233 43.909 30.0357 43.8817C30.0481 43.8544 30.055 43.8249 30.056 43.7949V39.8461C30.1576 39.1771 30.0499 38.4929 29.7479 37.8881C29.5856 37.6714 29.3747 37.4963 29.1323 37.3772C28.89 37.2581 28.6231 37.1983 28.3534 37.2028C27.9878 37.1922 27.6282 37.2986 27.3266 37.5068C27.025 37.715 26.7968 38.0142 26.675 38.3613C26.5735 38.0241 26.3662 37.729 26.0841 37.5202C25.8021 37.3113 25.4604 37.2 25.1102 37.2028C24.7505 37.1873 24.3958 37.2928 24.1022 37.5025C23.8086 37.7123 23.5927 38.0144 23.4886 38.3613V37.5455C23.4865 37.4863 23.4617 37.4303 23.4193 37.3892C23.377 37.3481 23.3204 37.3251 23.2616 37.3252H22.2157C22.1863 37.3241 22.1569 37.329 22.1294 37.3395C22.1019 37.3501 22.0768 37.3662 22.0556 37.3867C22.0344 37.4073 22.0176 37.432 22.0061 37.4592C21.9946 37.4865 21.9887 37.5158 21.9887 37.5455V43.7704C21.9875 43.8007 21.9926 43.8309 22.0036 43.8591C22.0146 43.8874 22.0313 43.913 22.0526 43.9345C22.074 43.9559 22.0994 43.9727 22.1275 43.9838C22.1555 43.9949 22.1856 44 22.2157 43.9988H23.4562C23.4857 43.9989 23.5148 43.9929 23.5419 43.9813C23.569 43.9697 23.5935 43.9528 23.6139 43.9315C23.6344 43.9101 23.6503 43.8849 23.6608 43.8572C23.6714 43.8295 23.6762 43.8 23.6751 43.7704V40.507L23.6427 40.4825ZM51.1042 43.7867C51.1053 43.817 51.1002 43.8472 51.0892 43.8755C51.0782 43.9037 51.0615 43.9293 51.0402 43.9508C51.0189 43.9722 50.9934 43.989 50.9653 44.0001C50.9373 44.0112 50.9072 44.0163 50.8771 44.0151H49.6691C49.6088 44.0151 49.5511 43.9911 49.5085 43.9482C49.466 43.9054 49.442 43.8473 49.442 43.7867V37.5618C49.4441 37.5026 49.469 37.4466 49.5113 37.4055C49.5537 37.3644 49.6102 37.3415 49.6691 37.3415H50.7879C50.8398 37.3383 50.8912 37.3537 50.9328 37.3851C50.9744 37.4165 51.0035 37.4618 51.015 37.5128V38.4674C51.099 38.1008 51.3063 37.7747 51.6018 37.5442C51.8973 37.3138 52.2628 37.1932 52.6365 37.2028C52.9153 37.194 53.1916 37.2577 53.4387 37.3878C53.6858 37.5179 53.8955 37.7098 54.0473 37.9452C54.3135 38.5553 54.4223 39.2232 54.3635 39.8869V43.8193C54.3574 43.8749 54.3306 43.926 54.2884 43.9623C54.2463 43.9987 54.192 44.0176 54.1365 44.0151H52.969C52.9163 44.0135 52.866 43.9928 52.8273 43.9568C52.7885 43.9209 52.764 43.872 52.7582 43.8193V40.042C52.7582 38.7774 52.2717 38.7448 51.996 38.7448C51.8462 38.7534 51.7016 38.8037 51.5785 38.8902C51.4554 38.9766 51.3585 39.0957 51.2987 39.2343C51.149 39.6125 51.0826 40.0189 51.1042 40.4254V43.7867Z" fill="black"/>
<path d="M3.99718 43.9988L3.89988 43.3625C3.615 43.6117 3.28829 43.8078 2.93504 43.9417C2.6027 44.0778 2.24789 44.1497 1.88912 44.1538C1.63802 44.1674 1.38676 44.1303 1.15008 44.0449C0.913393 43.9594 0.696047 43.8273 0.510779 43.6562C0.335348 43.4861 0.19824 43.28 0.108722 43.052C0.0192026 42.824 -0.0206441 42.5793 -0.00812743 42.3345C-0.0183451 42.0637 0.0333616 41.7941 0.143007 41.5466C0.252651 41.2991 0.417308 41.0802 0.62429 40.9068C1.10931 40.5344 1.70951 40.3466 2.31884 40.3765C2.83631 40.3842 3.35091 40.4554 3.85123 40.5886V39.7727C3.86948 39.6052 3.85217 39.4356 3.80046 39.2753C3.74874 39.115 3.6638 38.9675 3.55124 38.8427C3.25658 38.6332 2.89677 38.5376 2.53776 38.5734C1.81087 38.5826 1.09044 38.7122 0.405376 38.9569V38.1084C0.742678 37.9365 1.10329 37.8156 1.47562 37.7494C1.89423 37.6612 2.32088 37.6175 2.74856 37.6189C3.35261 37.5685 3.95442 37.7394 4.44311 38.1002C4.63628 38.2894 4.78579 38.519 4.88106 38.7728C4.97633 39.0266 5.01504 39.2983 4.99445 39.5688V43.9988H3.99718ZM2.1729 43.2401C2.78472 43.2167 3.37297 42.9965 3.85123 42.6119V41.3718C3.42979 41.2644 2.99682 41.2096 2.56208 41.2086C1.65399 41.2086 1.19184 41.5676 1.19184 42.2692C1.18363 42.4004 1.20243 42.5319 1.24708 42.6555C1.29172 42.779 1.36125 42.8919 1.4513 42.9872C1.55013 43.076 1.66556 43.1441 1.79085 43.1875C1.91614 43.231 2.04878 43.2488 2.18101 43.2401H2.1729ZM10.9538 43.9988V39.8543C10.9815 39.5141 10.8865 39.1752 10.6862 38.8998C10.5815 38.7924 10.4546 38.7097 10.3144 38.6575C10.1742 38.6053 10.0243 38.5849 9.87541 38.5979C9.20046 38.6081 8.5445 38.8243 7.99437 39.2179V43.9988H6.7863V37.7984H7.79168L7.91329 38.4837C8.60681 37.9328 9.46217 37.6287 10.3457 37.6189C10.5902 37.6009 10.8359 37.6336 11.0674 37.715C11.2989 37.7964 11.5114 37.9247 11.6916 38.0921C11.8586 38.2793 11.9857 38.4989 12.0652 38.7375C12.1447 38.976 12.1748 39.2283 12.1537 39.479V44.0315L10.9538 43.9988ZM62.22 43.7622C61.7167 44.0141 61.1604 44.14 60.5984 44.1294C60.1971 44.1558 59.7947 44.0968 59.4175 43.9562C59.0403 43.8157 58.6967 43.5967 58.4093 43.3135C57.9076 42.6172 57.6374 41.7791 57.6374 40.919C57.6374 40.0589 57.9076 39.2208 58.4093 38.5245C58.7004 38.2394 59.0481 38.0194 59.4295 37.8788C59.8109 37.7382 60.2175 37.6802 60.6228 37.7086C61.1527 37.7056 61.6764 37.8227 62.1552 38.0513V38.9161C61.7219 38.7633 61.2681 38.678 60.8092 38.6632C60.5416 38.6376 60.2717 38.6711 60.0182 38.7612C59.7647 38.8514 59.5339 38.9961 59.3417 39.1853C59.005 39.6586 58.8469 40.2371 58.8958 40.817V40.972C58.8492 41.553 59.0102 42.1316 59.3498 42.6037C59.5367 42.7908 59.762 42.9344 60.0099 43.0246C60.2578 43.1148 60.5224 43.1494 60.7849 43.1259C61.2728 43.1172 61.7566 43.0347 62.22 42.8811V43.7622ZM65.9983 44.1783C65.5967 44.2013 65.1949 44.1359 64.821 43.9865C64.4471 43.8371 64.1101 43.6075 63.8335 43.3135C63.3224 42.6134 63.0468 41.7673 63.0468 40.8986C63.0468 40.0299 63.3224 39.1838 63.8335 38.4837C64.4175 37.9283 65.1907 37.6188 65.9942 37.6188C66.7978 37.6188 67.571 37.9283 68.155 38.4837C68.6661 39.1838 68.9417 40.0299 68.9417 40.8986C68.9417 41.7673 68.6661 42.6134 68.155 43.3135C67.88 43.6073 67.5444 43.8369 67.1719 43.9863C66.7993 44.1357 66.3987 44.2012 65.9983 44.1783ZM65.9983 43.1993C67.1334 43.1993 67.7091 42.4324 67.7091 40.8904C67.7091 39.3485 67.1334 38.5979 65.9983 38.5979C64.8632 38.5979 64.2875 39.3566 64.2875 40.8904C64.2875 42.4242 64.8551 43.1993 65.9983 43.1993ZM78.2818 43.9988V39.789C78.3061 39.4729 78.2263 39.1576 78.0548 38.8916C77.9643 38.7888 77.8512 38.7087 77.7245 38.6577C77.5978 38.6068 77.461 38.5863 77.3251 38.5979C76.6915 38.6096 76.0738 38.7989 75.5413 39.1445C75.5455 39.207 75.5455 39.2697 75.5413 39.3322V43.9988H74.3413V39.789C74.3621 39.4732 74.2826 39.159 74.1143 38.8916C74.0238 38.7888 73.9107 38.7087 73.784 38.6577C73.6573 38.6068 73.5206 38.5863 73.3846 38.5979C72.7537 38.6024 72.1373 38.7894 71.609 39.1364V44.0315H70.409V37.831H71.4144L71.536 38.4592C72.193 37.9619 72.9848 37.6774 73.8062 37.6434C74.1177 37.607 74.4328 37.6681 74.7085 37.8185C74.9841 37.9689 75.207 38.2012 75.3467 38.4837C76.0423 37.9366 76.8963 37.6329 77.7791 37.6189C78.0149 37.6024 78.2516 37.6361 78.4737 37.7176C78.6957 37.7991 78.8983 37.9267 79.0682 38.0921C79.3825 38.4814 79.5312 38.9799 79.4817 39.479V44.0315L78.2818 43.9988ZM81.2574 46.5117V37.7984H82.2628L82.3763 38.4347C82.9331 37.9119 83.666 37.6205 84.4276 37.6189C84.7789 37.599 85.13 37.6624 85.4525 37.8042C85.775 37.9459 86.06 38.1619 86.2843 38.4347C86.7699 39.1143 87.0102 39.9404 86.9653 40.7762C87.0171 41.6519 86.7618 42.5182 86.2437 43.2238C86.0202 43.5159 85.7309 43.7504 85.3996 43.9078C85.0683 44.0653 84.7046 44.1412 84.3384 44.1294C83.6427 44.1437 82.9686 43.8864 82.4573 43.4114V46.5117H81.2574ZM84.087 38.5979C83.5003 38.6044 82.9314 38.8019 82.4655 39.1608V42.5629C82.9271 42.9328 83.497 43.1393 84.087 43.1503C85.2059 43.1503 85.7573 42.3916 85.7573 40.8823C85.805 40.2799 85.6631 39.6776 85.3519 39.1608C85.2057 38.9668 85.013 38.8133 84.7918 38.7149C84.5705 38.6164 84.328 38.5761 84.087 38.5979ZM92.0652 43.9988L91.9679 43.3625C91.683 43.6117 91.3563 43.8078 91.0031 43.9417C90.6679 44.0777 90.3104 44.1496 89.949 44.1538C89.698 44.1665 89.447 44.129 89.2105 44.0436C88.9739 43.9582 88.7565 43.8265 88.5707 43.6562C88.398 43.4844 88.2632 43.2779 88.1752 43.0502C88.0872 42.8224 88.0479 42.5786 88.0599 42.3345C88.0487 42.0643 88.0992 41.7952 88.2074 41.5477C88.3156 41.3002 88.4787 41.081 88.6842 40.9068C89.1717 40.5332 89.7749 40.3454 90.3869 40.3765C90.9044 40.3842 91.4189 40.4554 91.9193 40.5886V39.7727C91.9355 39.6053 91.9172 39.4363 91.8656 39.2762C91.814 39.1162 91.7301 38.9686 91.6193 38.8427C91.3246 38.6332 90.9648 38.5376 90.6058 38.5734C89.8762 38.5819 89.153 38.7115 88.4653 38.9569V38.1084C88.8026 37.9365 89.1632 37.8156 89.5355 37.7494C89.9542 37.6616 90.3808 37.6179 90.8085 37.6189C91.4149 37.5702 92.0187 37.7409 92.5111 38.1002C92.7029 38.2902 92.8509 38.5201 92.9447 38.7738C93.0386 39.0276 93.076 39.2989 93.0544 39.5688V43.9988H92.0652ZM90.2409 43.2401C90.8528 43.2167 91.441 42.9965 91.9193 42.6119V41.3718C91.4978 41.2644 91.0649 41.2096 90.6301 41.2086C89.7139 41.2086 89.2599 41.5676 89.2599 42.2692C89.2506 42.3998 89.2681 42.531 89.3113 42.6545C89.3546 42.778 89.4226 42.8913 89.5112 42.9872C89.7122 43.1643 89.9742 43.255 90.2409 43.2401ZM99.0056 43.9988V39.8543C99.0314 39.5155 98.9398 39.1782 98.7461 38.8998C98.6415 38.7924 98.5145 38.7097 98.3743 38.6575C98.2341 38.6053 98.0842 38.5849 97.9353 38.5979C97.2604 38.6081 96.6044 38.8243 96.0543 39.2179V43.9988H94.8543V37.7984H95.8597L95.9813 38.4837C96.6745 37.9323 97.5301 37.6281 98.4137 37.6189C98.6595 37.6007 98.9064 37.6333 99.1393 37.7147C99.3721 37.7961 99.586 37.9245 99.7677 38.0921C100.091 38.4656 100.254 38.9524 100.222 39.4464V43.9988H99.0056ZM106.968 37.7984L104.162 45.0839C104.014 45.5449 103.752 45.9605 103.4 46.2914C103.08 46.5449 102.68 46.6751 102.273 46.6585C101.952 46.6607 101.633 46.6026 101.333 46.4872V45.6224C101.558 45.679 101.789 45.7064 102.022 45.704C102.279 45.719 102.534 45.6377 102.735 45.4755C102.954 45.2461 103.113 44.9658 103.197 44.6597L103.432 44.0396L100.951 37.782H102.241L104.016 42.8566L105.727 37.782H106.968V37.7984ZM24.0967 12.7436H3.49449V12.6294C3.56749 11.9003 3.73654 11.1842 3.99718 10.5C4.86864 7.94406 6.61243 5.78179 8.91867 4.39744C10.4784 3.50905 12.2517 3.07144 14.0429 3.13287C15.3902 3.12591 16.726 3.38364 17.9752 3.89161C19.1627 4.36626 20.2496 5.06399 21.1778 5.94755C22.0713 6.80327 22.795 7.82214 23.3102 8.94988C23.8469 10.0983 24.1238 11.3522 24.121 12.6212L24.0967 12.7436ZM14.2293 -5.02914e-08C12.2637 -0.0262437 10.3142 0.359976 8.50517 1.13403C6.80851 1.88115 5.2762 2.95991 3.99718 4.30769C2.71089 5.6768 1.70528 7.2875 1.03779 9.04778C0.331944 10.9522 -0.0198444 12.971 -1.93464e-05 15.0035C-0.0256297 17.0882 0.320375 19.1606 1.02158 21.1224C1.66165 22.8966 2.65487 24.5206 3.94042 25.8951C5.22438 27.2471 6.77696 28.3118 8.49706 29.0198C10.3765 29.7847 12.3887 30.1647 14.4158 30.1375C16.8248 30.1637 19.2121 29.6772 21.4211 28.7098C23.5805 27.706 25.4113 26.1044 26.6993 24.0921L24.1453 21.9301C23.1549 23.5074 21.7524 24.7803 20.0914 25.6096C18.3687 26.5136 16.4559 26.9892 14.5131 26.9965C12.6224 27.0733 10.746 26.6365 9.08083 25.7319C7.76612 24.9638 6.62333 23.9305 5.72416 22.697C4.92984 21.611 4.34413 20.3852 3.99718 19.0828C3.71744 18.086 3.55953 17.0586 3.52692 16.0233V15.9091H27.5912V13.3718C27.5791 11.7003 27.2773 10.0438 26.6993 8.47669C26.1327 6.88816 25.2654 5.42526 24.1453 4.169C22.9803 2.88462 21.568 1.85205 19.9941 1.13403C18.176 0.342055 16.2101 -0.0474718 14.2293 -0.00815874V-5.02914e-08ZM55.8878 12.7436H35.2937V12.6294C35.3667 11.9003 35.5357 11.1842 35.7964 10.5C36.1909 9.35357 36.7628 8.277 37.4909 7.31002C38.3742 6.13909 39.4758 5.15257 40.7341 4.40559C42.2927 3.51441 44.0668 3.0766 45.8583 3.14102C47.203 3.13408 48.5361 3.39183 49.7825 3.89977C50.9854 4.3678 52.0868 5.06599 53.0257 5.95571C53.8916 6.81726 54.5876 7.83597 55.077 8.95804C55.6098 10.1078 55.8866 11.3608 55.8878 12.6294V12.7436ZM46.0285 -5.02914e-08C44.0603 -0.0261847 42.1082 0.36001 40.2963 1.13403C38.6056 1.87985 37.0789 2.95579 35.8045 4.29953C34.5155 5.66652 33.5095 7.2778 32.8451 9.03963C32.1317 10.9451 31.777 12.9675 31.7992 15.0035C31.775 17.0874 32.1181 19.1591 32.8127 21.1224C33.4582 22.8958 34.4538 24.5193 35.7396 25.8951C37.0236 27.2471 38.5762 28.3118 40.2963 29.0198C42.1755 29.7854 44.1878 30.1654 46.215 30.1375C48.624 30.1637 51.0113 29.6772 53.2202 28.7098C55.3745 27.7046 57.1997 26.1029 58.4823 24.0921L55.9283 21.9301C54.9298 23.5156 53.5119 24.7897 51.8338 25.6096C50.1112 26.5136 48.1984 26.9892 46.2556 26.9965C44.3648 27.0733 42.4884 26.6365 40.8233 25.7319C39.5086 24.9638 38.3658 23.9305 37.4666 22.697C36.6777 21.611 36.1 20.3847 35.7639 19.0828C35.4842 18.086 35.3263 17.0586 35.2937 16.0233V15.9091H59.3904V13.3718C59.3846 11.7026 59.0939 10.0468 58.5309 8.47669C57.9644 6.88816 57.097 5.42526 55.9769 4.169C54.8128 2.88721 53.4037 1.85495 51.8338 1.13403C50.0152 0.343757 48.0496 -0.0456962 46.0691 -0.00815874L46.0285 -5.02914e-08ZM91.1085 26.9965C89.4712 27.0181 87.8475 26.6958 86.341 26.0501C84.969 25.4506 83.731 24.5794 82.7006 23.4883C81.689 22.3973 80.9108 21.1088 80.4142 19.7028C79.3659 16.7035 79.3659 13.434 80.4142 10.4347C80.9127 9.02719 81.6906 7.73643 82.7006 6.64102C83.7315 5.5526 84.9695 4.68414 86.341 4.08741C89.3956 2.82532 92.8214 2.82532 95.8759 4.08741C97.2491 4.67259 98.486 5.53921 99.5078 6.63205C100.53 7.72489 101.314 9.01997 101.811 10.4347C102.859 13.434 102.859 16.7035 101.811 19.7028C101.31 21.1087 100.529 22.3969 99.5164 23.4883C98.4874 24.5811 97.249 25.4526 95.8759 26.0501C94.3697 26.6964 92.7458 27.0188 91.1085 26.9965ZM91.1085 -5.02914e-08C89.0442 -0.0129767 86.9966 0.371967 85.0762 1.13403C83.2949 1.82934 81.6788 2.89396 80.3331 4.25874C79.0026 5.62906 77.9554 7.25125 77.2521 9.03147C76.5048 10.9544 76.1332 13.0042 76.1575 15.0688C76.1363 17.1398 76.5135 19.1955 77.2683 21.1224C77.9716 22.9026 79.0188 24.5248 80.3493 25.8951C81.6945 27.2528 83.3037 28.3165 85.0762 29.0198C87.0002 29.7773 89.0506 30.1567 91.1166 30.1375C93.1748 30.1589 95.2177 29.7794 97.1326 29.0198C98.9107 28.3164 100.526 27.2522 101.877 25.8935C103.229 24.5348 104.288 22.9108 104.989 21.1224C106.47 17.2242 106.47 12.9133 104.989 9.01515C104.28 7.23007 103.221 5.6069 101.876 4.24242C100.518 2.89305 98.9012 1.83551 97.1245 1.13403C95.2096 0.374496 93.1667 -0.00505176 91.1085 0.0163158V-5.02914e-08ZM63.5659 29.3869H67.0604V13.7552C67.0507 12.3996 67.2392 11.0499 67.6199 9.74942C67.9743 8.55529 68.5645 7.44537 69.355 6.48601C70.1572 5.53359 71.171 4.78456 72.3144 4.29953C73.6202 3.74701 75.0247 3.46936 76.4413 3.48368V0.220278C72.3873 0.301864 69.1847 1.55827 66.9713 3.94056C63.3308 7.84848 63.5659 13.5268 63.5659 13.5839V29.3869Z" fill="black"/>
</g>
<defs>
<clipPath id="clip0_1_17">
<rect width="107" height="49" fill="white"/>
</clipPath>
</defs>
</svg>
