<svg width="108" height="33" viewBox="0 0 108 33" fill="none" xmlns="http://www.w3.org/2000/svg">
<path fill-rule="evenodd" clip-rule="evenodd" d="M66.673 25.3284C60.429 29.9366 51.3766 32.3869 43.5809 32.3869C32.6553 32.3869 22.8172 28.348 15.373 21.6266C14.788 21.098 15.3101 20.3779 16.0119 20.7858C24.0437 25.4609 33.9776 28.2746 44.2368 28.2746C51.1576 28.2746 58.7644 26.8382 65.7652 23.8697C66.8212 23.4211 67.7066 24.565 66.673 25.3284Z" fill="#FF9900"/>
<path fill-rule="evenodd" clip-rule="evenodd" d="M69.2709 22.3617C68.472 21.3398 63.9924 21.8777 61.9788 22.1177C61.3702 22.1912 61.2744 21.6586 61.8241 21.2729C65.3986 18.7623 71.2555 19.4877 71.9363 20.3272C72.6211 21.1759 71.7566 27.0473 68.4064 29.8492C67.8909 30.2794 67.4003 30.0499 67.6299 29.4819C68.3828 27.5982 70.0697 23.3849 69.2709 22.3617Z" fill="#FF9900"/>
<path fill-rule="evenodd" clip-rule="evenodd" d="M62.1209 3.53862V1.09876C62.1223 0.726223 62.4017 0.479614 62.7401 0.480926L73.6735 0.479614C74.0225 0.479614 74.3032 0.734094 74.3032 1.09482V3.18707C74.2992 3.53861 74.0041 3.99642 73.4794 4.72313L67.8166 12.8088C69.918 12.7602 72.1427 13.0763 74.0526 14.1494C74.4829 14.3894 74.5983 14.7488 74.6324 15.1004V17.7042C74.6324 18.061 74.2402 18.4781 73.827 18.2617C70.4624 16.4987 65.9972 16.3059 62.2757 18.2827C61.8953 18.486 61.4979 18.0754 61.4979 17.7173V15.2434C61.4979 14.8459 61.5044 14.169 61.9045 13.5669L68.4659 4.15383L62.7519 4.15251C62.403 4.15251 62.1223 3.90328 62.1209 3.53862Z" fill="#221F1F"/>
<path fill-rule="evenodd" clip-rule="evenodd" d="M83.7155 0.165649C88.6516 0.165649 91.321 4.40391 91.321 9.79389C91.321 15.0015 88.3735 19.1336 83.7155 19.1336C78.8725 19.1336 76.2319 14.894 76.2319 9.61287C76.2319 4.29635 78.9027 0.165649 83.7155 0.165649ZM83.7456 3.65097C81.2927 3.65097 81.1379 6.99068 81.1379 9.07506C81.1379 11.1581 81.1077 15.6115 83.7155 15.6115C86.2931 15.6115 86.4164 12.0199 86.4164 9.82931C86.4164 8.39163 86.3547 6.66799 85.9192 5.30246C85.5467 4.11795 84.8016 3.65097 83.7456 3.65097Z" fill="#221F1F"/>
<path fill-rule="evenodd" clip-rule="evenodd" d="M53.4055 10.6212C53.4055 11.9172 53.437 12.9981 52.7838 14.1498C52.2551 15.0851 51.4143 15.6623 50.4816 15.6623C49.2053 15.6623 48.4589 14.6903 48.4589 13.25C48.4589 10.4166 51.0011 9.90109 53.4055 9.90109V10.6212ZM56.7597 18.7318C56.5406 18.9286 56.1379 18.9351 55.9739 18.8079C54.838 17.929 54.0666 16.5923 54.0666 16.5923C52.2407 18.4524 50.9473 19.0112 48.5835 19.0112C45.7829 19.0112 43.6041 17.281 43.6041 13.8258C43.6041 11.1263 45.0667 9.2885 47.1524 8.38995C48.9561 7.59634 51.4772 7.45336 53.4055 7.23692C53.4055 7.23692 53.5669 5.15255 53.0015 4.39305C52.5634 3.80408 51.8196 3.52861 51.1349 3.52861C49.9018 3.52336 48.7095 4.19498 48.472 5.48574C48.4051 5.85434 48.1323 6.16523 47.845 6.13374L44.6601 5.78744C44.4161 5.75989 44.0855 5.50935 44.1629 5.09221C44.9041 1.18189 48.4353 0 51.6019 0C53.2193 0 55.3351 0.431566 56.6114 1.65674C58.2288 3.16919 58.074 5.18404 58.074 7.38122V12.5626C58.074 14.1223 58.7207 14.8057 59.3294 15.6452C59.5406 15.9496 59.5891 16.3077 59.3189 16.5294C58.6381 17.0987 56.7597 18.7318 56.7597 18.7318Z" fill="#221F1F"/>
<path fill-rule="evenodd" clip-rule="evenodd" d="M9.8014 10.6212C9.8014 11.9172 9.83288 12.9981 9.17963 14.1498C8.65099 15.0851 7.81016 15.6623 6.87751 15.6623C5.60117 15.6623 4.85479 14.6903 4.85479 13.25C4.85479 10.4166 7.39696 9.90109 9.8014 9.90109V10.6212ZM13.1555 18.7318C12.9352 18.9286 12.5338 18.9351 12.3698 18.8079C11.2325 17.929 10.4625 16.5923 10.4625 16.5923C8.63656 18.4524 7.34318 19.0112 4.9794 19.0112C2.17882 19.0112 0 17.281 0 13.8258C0 11.1263 1.4626 9.2885 3.54697 8.38995C5.35194 7.59634 7.87312 7.45336 9.8014 7.23692C9.8014 7.23692 9.96274 5.15255 9.39738 4.39305C8.95925 3.80408 8.21549 3.52861 7.53076 3.52861C6.2964 3.52336 5.10402 4.19498 4.8679 5.48574C4.79969 5.85434 4.52816 6.16523 4.24089 6.13374L1.05596 5.78744C0.810661 5.75989 0.480101 5.50935 0.558806 5.09221C1.29994 1.18189 4.83118 0 7.99774 0C9.61513 0 11.731 0.431566 13.0073 1.65674C14.6247 3.16919 14.4699 5.18404 14.4699 7.38122V12.5626C14.4699 14.1223 15.1166 14.8057 15.7239 15.6452C15.9365 15.9496 15.985 16.3077 15.7135 16.5294C15.034 17.0987 13.1555 18.7318 13.1555 18.7318Z" fill="#221F1F"/>
<path fill-rule="evenodd" clip-rule="evenodd" d="M22.8824 9.11108C22.8824 7.13428 22.7893 4.40452 25.1793 4.40452C27.5391 4.40452 27.2283 7.20642 27.2283 9.11108L27.2322 18.1608C27.2322 18.4875 27.4959 18.7538 27.829 18.7734H31.1517C31.5059 18.7734 31.7931 18.5006 31.7931 18.1595V9.11108C31.7931 8.14039 31.763 6.70402 32.104 5.8422C32.4451 4.98038 33.2833 4.43994 34.0913 4.43994C35.0528 4.43994 35.7992 4.76394 36.0471 5.91304C36.2019 6.59646 36.1403 8.39224 36.1403 9.11108L36.1416 18.1608C36.1416 18.4875 36.4039 18.7538 36.7384 18.7734H40.0598C40.4153 18.7734 40.7012 18.5006 40.7012 18.1595L40.7052 7.38744C40.7052 5.55362 40.9216 3.47056 39.8657 2.03419C38.9343 0.740806 37.414 0.16626 36.0157 0.16626C34.0598 0.16626 32.2286 1.17237 31.4206 3.32758C30.4893 1.17237 29.1854 0.16626 27.1049 0.16626C25.056 0.16626 23.5344 1.17237 22.7276 3.32758H22.6647V1.14745C22.6647 0.80377 22.3866 0.525679 22.0429 0.525679H18.9393C18.5956 0.525679 18.3188 0.80377 18.3188 1.14745V18.153C18.3188 18.4953 18.5956 18.7734 18.9393 18.7734H22.2607C22.6043 18.7734 22.8824 18.4953 22.8824 18.153V9.11108Z" fill="#221F1F"/>
<path fill-rule="evenodd" clip-rule="evenodd" d="M98.3734 18.1522C98.3734 18.4959 98.0953 18.774 97.7516 18.774H94.4303C94.0879 18.774 93.8098 18.4959 93.8098 18.1522V1.14672C93.8098 0.80435 94.0879 0.524947 94.4303 0.524947H97.5011C97.8618 0.524947 98.1228 0.814844 98.1228 1.01161V3.61412H98.1871C99.1185 1.2792 100.422 0.165527 102.719 0.165527C104.211 0.165527 105.669 0.704656 106.601 2.17775C107.472 3.54197 107.472 5.84147 107.472 7.49427V18.2362C107.434 18.5392 107.162 18.774 106.833 18.774H103.498C103.19 18.7543 102.942 18.5274 102.907 18.2362L102.912 7.92059C102.912 4.46938 101.59 4.36837 100.828 4.36837C99.9396 4.36837 99.2247 5.06229 98.9125 5.70898C98.4482 6.75182 98.3734 7.81697 98.3734 8.96737V18.1522Z" fill="#221F1F"/>
</svg>
