<svg width="37" height="37" viewBox="0 0 37 37" fill="none" xmlns="http://www.w3.org/2000/svg">
<path fill-rule="evenodd" clip-rule="evenodd" d="M13.8705 6.19748C13.8705 3.66284 15.9258 1.6084 18.4608 1.6084C20.9956 1.6084 23.0499 3.66267 23.0499 6.19748C23.0499 8.7323 20.9956 10.7866 18.4608 10.7866C15.9258 10.7866 13.8705 8.73212 13.8705 6.19748ZM18.4608 0.358398C15.2358 0.358398 12.6205 2.97212 12.6205 6.19748C12.6205 9.42284 15.2358 12.0366 18.4608 12.0366C21.686 12.0366 24.2999 9.42266 24.2999 6.19748C24.2999 2.9723 21.686 0.358398 18.4608 0.358398ZM1.09235 34.8393C0.74717 34.8393 0.467346 35.1191 0.467346 35.4643C0.467346 35.8095 0.74717 36.0893 1.09235 36.0893H35.8288C36.174 36.0893 36.4538 35.8095 36.4538 35.4643C36.4538 35.1191 36.174 34.8393 35.8288 34.8393H1.09235ZM9.43131 25.7415C9.43131 24.4376 10.4874 23.3793 11.7924 23.3793H25.1277C26.432 23.3793 27.49 24.437 27.49 25.7415V32.3067C27.49 32.6519 27.2102 32.9317 26.865 32.9317C26.5198 32.9317 26.24 32.6519 26.24 32.3067V25.7415C26.24 25.1275 25.7418 24.6293 25.1277 24.6293H11.7924C11.1789 24.6293 10.6813 25.1269 10.6813 25.7415V32.3067C10.6813 32.6519 10.4015 32.9317 10.0563 32.9317C9.71113 32.9317 9.43131 32.6519 9.43131 32.3067V25.7415ZM14.123 15.5357C11.015 15.5357 8.22309 17.4343 7.08075 20.3231L4.03377 28.0288L4.03371 28.0289C3.41039 29.6064 3.71671 31.3981 4.82703 32.6799C5.05303 32.9408 5.44774 32.9692 5.70865 32.7432C5.96956 32.5172 5.99787 32.1225 5.77188 31.8615C4.96614 30.9313 4.74431 29.632 5.19625 28.4883L8.24316 20.7828L8.24317 20.7827C9.19688 18.371 11.5278 16.7857 14.123 16.7857H22.7985C25.3936 16.7857 27.7246 18.371 28.6783 20.7827L28.6784 20.7827L31.7241 28.4883C32.1762 29.6324 31.9551 30.9316 31.1497 31.8616C30.9237 32.1225 30.952 32.5172 31.2129 32.7432C31.4738 32.9692 31.8686 32.9408 32.0945 32.6799C33.2051 31.3977 33.5098 29.6061 32.8866 28.0289L32.8866 28.0289L29.8408 20.3232L29.8408 20.3231C28.6985 17.4343 25.9065 15.5357 22.7985 15.5357H14.123Z" fill="#231F20"/>
</svg>
