<svg width="79" height="80" viewBox="0 0 79 80" fill="none" xmlns="http://www.w3.org/2000/svg">
<g clip-path="url(#clip0_1_107)">
<path fill-rule="evenodd" clip-rule="evenodd" d="M26.0122 1.38525H52.9878C66.8215 1.38525 78.0366 12.6004 78.0366 26.434V53.4096C78.0366 67.2433 66.8215 78.4584 52.9878 78.4584H26.0122C12.1785 78.4584 0.96344 67.2433 0.96344 53.4096V26.434C0.96344 12.6004 12.1785 1.38525 26.0122 1.38525Z" stroke="#FEFEFE" stroke-width="1.5"/>
<path d="M46.2166 25.7697C44.2329 24.5963 41.9198 23.9229 39.4496 23.9229C36.9948 23.9229 34.6961 24.5866 32.722 25.7456" stroke="#FEFEFE" stroke-width="1.5"/>
<path d="M51.1645 21.1796C47.8735 18.7682 43.8136 17.3452 39.4224 17.3452C35.0726 17.3452 31.0484 18.7412 27.7747 21.1102" stroke="#FEFEFE" stroke-width="1.5"/>
<path fill-rule="evenodd" clip-rule="evenodd" d="M44.525 61.5345H34.4746C29.2539 61.5345 25.0216 57.3022 25.0216 52.0805V42.0311C25.0216 36.8104 29.2539 32.5771 34.4746 32.5771H44.525C49.7467 32.5771 53.979 36.8104 53.979 42.0311V52.0805C53.979 57.3022 49.7467 61.5345 44.525 61.5345Z" stroke="#FEFEFE" stroke-width="1.5"/>
<path fill-rule="evenodd" clip-rule="evenodd" d="M35.2709 47.056C35.2709 44.7198 37.164 42.8257 39.5003 42.8257C41.8356 42.8257 43.7297 44.7198 43.7297 47.056C43.7297 49.3923 41.8356 51.2864 39.5003 51.2864C37.164 51.2864 35.2709 49.3923 35.2709 47.056Z" stroke="#FEFEFE" stroke-width="1.5"/>
</g>
<defs>
<clipPath id="clip0_1_107">
<rect width="79" height="79" fill="white" transform="translate(0 0.421875)"/>
</clipPath>
</defs>
</svg>
