<!-- Generated by IcoMoon.io -->
<svg version="1.1" xmlns="http://www.w3.org/2000/svg" width="32" height="32" viewBox="0 0 32 32">
<title>Frame-1</title>
<path fill="none" stroke-linejoin="round" stroke-linecap="round" stroke-miterlimit="4" stroke-width="0.8" stroke="#000" d="M23.372 19.088c0-1.837-1.487-3.326-3.321-3.326h-3.625l-0.503-6.513c-0.024-0.293-0.16-0.565-0.38-0.759s-0.506-0.297-0.799-0.286c-0.293 0.011-0.571 0.135-0.775 0.346s-0.319 0.493-0.32 0.786l0.010 13.078-2.312-2.024c-0.435-0.381-0.99-0.596-1.569-0.608s-1.142 0.182-1.591 0.546c0 0 4.052 4.952 6.95 6.326"></path>
<path fill="none" stroke-linejoin="round" stroke-linecap="round" stroke-miterlimit="4" stroke-width="0.8" stroke="#000" d="M10.967 11.489v-3.552c-0-0.579 0.229-1.135 0.638-1.544s0.964-0.64 1.543-0.641h3.273c0.287 0 0.571 0.057 0.835 0.167s0.505 0.271 0.708 0.474c0.203 0.203 0.363 0.444 0.473 0.709s0.166 0.549 0.165 0.836v3.552"></path>
<path fill="none" stroke-linejoin="miter" stroke-linecap="butt" stroke-miterlimit="4" stroke-width="0.8" stroke="#000" d="M21.195 0.648h-10.79c-5.534 0-10.020 4.486-10.020 10.020v10.79c0 5.534 4.486 10.020 10.020 10.020h10.79c5.534 0 10.019-4.486 10.019-10.020v-10.79c0-5.534-4.486-10.020-10.019-10.020z"></path>
</svg>
