<!-- Generated by IcoMoon.io -->
<svg version="1.1" xmlns="http://www.w3.org/2000/svg" width="32" height="32" viewBox="0 0 32 32">
<title>Frame-2</title>
<path fill="none" stroke-linejoin="miter" stroke-linecap="butt" stroke-miterlimit="4" stroke-width="0.8" stroke="#000" d="M21.195 0.648h-10.79c-5.534 0-10.020 4.486-10.020 10.020v10.79c0 5.534 4.486 10.020 10.020 10.020h10.79c5.534 0 10.020-4.486 10.020-10.020v-10.79c0-5.534-4.486-10.020-10.020-10.020z"></path>
<path fill="none" stroke-linejoin="round" stroke-linecap="round" stroke-miterlimit="4" stroke-width="0.8" stroke="#000" d="M8.861 14.542v-1.908c0-2.15 1.611-3.893 3.597-3.893h6.588c1.987 0 3.597 1.743 3.597 3.893v1.908"></path>
<path fill="none" stroke-linejoin="round" stroke-linecap="round" stroke-miterlimit="4" stroke-width="0.8" stroke="#000" d="M8.861 16.199v3.565c0 2.15 1.611 3.893 3.597 3.893h6.588c1.987 0 3.597-1.743 3.597-3.893v-3.565"></path>
<path fill="none" stroke-linejoin="round" stroke-linecap="round" stroke-miterlimit="4" stroke-width="0.8" stroke="#000" d="M10.603 12.655l-1.743 1.886-1.743-1.886"></path>
<path fill="none" stroke-linejoin="round" stroke-linecap="round" stroke-miterlimit="4" stroke-width="0.8" stroke="#000" d="M20.901 18.085l1.743-1.886 1.743 1.886"></path>
</svg>
