<!-- Generated by IcoMoon.io -->
<svg version="1.1" xmlns="http://www.w3.org/2000/svg" width="32" height="32" viewBox="0 0 32 32">
<title>Frame</title>
<path fill="none" stroke-linejoin="round" stroke-linecap="round" stroke-miterlimit="4" stroke-width="0.8" stroke="#000" d="M12.323 15.542l2.299 2.293 4.755-4.743"></path>
<path fill="none" stroke-linejoin="round" stroke-linecap="round" stroke-miterlimit="4" stroke-width="0.8" stroke="#000" d="M16.335 26.641c1.878-1.037 8.578-5.563 8.841-17.498 0.009-0.432-0.261-0.834-0.671-0.975-2.541-0.876-5.496-1.382-8.657-1.382h0.003c-3.16 0-6.116 0.507-8.657 1.382-0.41 0.141-0.68 0.543-0.671 0.975 0.264 11.935 6.964 16.461 8.841 17.498 0.148 0.083 0.315 0.126 0.485 0.126s0.337-0.043 0.485-0.126l-0 0z"></path>
<path fill="none" stroke-linejoin="miter" stroke-linecap="butt" stroke-miterlimit="4" stroke-width="0.8" stroke="#000" d="M21.195 0.648h-10.79c-5.534 0-10.020 4.486-10.020 10.020v10.79c0 5.534 4.486 10.020 10.020 10.020h10.79c5.534 0 10.020-4.486 10.020-10.020v-10.79c0-5.534-4.486-10.020-10.020-10.020z"></path>
</svg>
