<!-- Generated by IcoMoon.io -->
<svg version="1.1" xmlns="http://www.w3.org/2000/svg" width="32" height="32" viewBox="0 0 32 32">
<title>key</title>
<path fill="none" stroke-linejoin="miter" stroke-linecap="butt" stroke-miterlimit="4" stroke-width="0.4" stroke="#000" d="M21.195 0.803h-10.79c-5.534 0-10.020 4.432-10.020 9.899v10.66c0 5.467 4.486 9.899 10.020 9.899h10.79c5.534 0 10.020-4.432 10.020-9.899v-10.66c0-5.467-4.486-9.899-10.020-9.899z"></path>
<path fill="none" stroke-linejoin="round" stroke-linecap="round" stroke-miterlimit="4" stroke-width="0.63" stroke="#000" d="M21.828 21.987c-3.318 3.278-8.698 3.278-12.017 0s-3.319-8.594 0-11.872c3.318-3.279 8.699-3.279 12.017 0s3.318 8.594 0 11.872z"></path>
<path fill="none" stroke-linejoin="round" stroke-linecap="round" stroke-miterlimit="4" stroke-width="0.63" stroke="#000" d="M18.394 20.122c-0.337 0.338-0.739 0.606-1.182 0.79s-0.918 0.279-1.398 0.281-0.956-0.091-1.4-0.271c-0.444-0.181-0.848-0.447-1.187-0.782s-0.609-0.734-0.792-1.173c-0.183-0.439-0.276-0.909-0.275-1.384s0.098-0.944 0.284-1.382 0.458-0.834 0.8-1.168c0.685-0.667 1.608-1.040 2.57-1.036s1.883 0.382 2.563 1.054c0.68 0.672 1.063 1.582 1.067 2.532s-0.374 1.863-1.049 2.539z"></path>
<path fill="none" stroke-linejoin="round" stroke-linecap="round" stroke-miterlimit="4" stroke-width="0.63" stroke="#000" d="M15.819 16.379v2.399"></path>
<path fill="none" stroke-linejoin="round" stroke-linecap="round" stroke-miterlimit="4" stroke-width="0.63" stroke="#000" d="M16.678 11.645c-0.228 0.222-0.536 0.345-0.856 0.344s-0.627-0.128-0.853-0.351c-0.226-0.224-0.354-0.527-0.356-0.843s0.124-0.62 0.348-0.846c0.228-0.222 0.536-0.345 0.856-0.344s0.627 0.128 0.853 0.351c0.226 0.224 0.354 0.527 0.356 0.843s-0.124 0.62-0.348 0.846v0z"></path>
</svg>
