<!-- Generated by IcoMoon.io -->
<svg version="1.1" xmlns="http://www.w3.org/2000/svg" width="32" height="32" viewBox="0 0 32 32">
<title>lamp</title>
<path fill="none" stroke-linejoin="miter" stroke-linecap="butt" stroke-miterlimit="4" stroke-width="0.4051" stroke="#000" d="M21.463 0.643h-10.927c-5.604 0-10.146 4.488-10.146 10.024v10.795c0 5.536 4.543 10.024 10.146 10.024h10.927c5.604 0 10.146-4.488 10.146-10.024v-10.795c0-5.536-4.543-10.024-10.146-10.024z"></path>
<path fill="none" stroke-linejoin="round" stroke-linecap="round" stroke-miterlimit="4" stroke-width="0.638" stroke="#000" d="M12.594 21.257h6.492"></path>
<path fill="none" stroke-linejoin="round" stroke-linecap="round" stroke-miterlimit="4" stroke-width="0.638" stroke="#000" d="M13.522 22.876h4.638"></path>
<path fill="none" stroke-linejoin="round" stroke-linecap="round" stroke-miterlimit="4" stroke-width="0.638" stroke="#000" d="M17.232 24.495h-2.782"></path>
<path fill="none" stroke-linejoin="round" stroke-linecap="round" stroke-miterlimit="4" stroke-width="0.638" stroke="#000" d="M19.059 19.637c0-0.871 0.218-1.729 0.635-2.498l1.373-2.537c0.008-0.015 0.017-0.029 0.024-0.044l0.009-0.017h-0.003c0.287-0.604 0.437-1.262 0.437-1.929 0-2.778-2.549-5.030-5.694-5.030s-5.694 2.252-5.694 5.030c0 0.684 0.157 1.335 0.437 1.929h-0.002l0.009 0.017c0.007 0.015 0.016 0.030 0.025 0.045l1.373 2.536c0.417 0.769 0.635 1.627 0.635 2.499"></path>
</svg>
