<!-- Generated by IcoMoon.io -->
<svg version="1.1" xmlns="http://www.w3.org/2000/svg" width="32" height="32" viewBox="0 0 32 32">
<title>phon</title>
<path fill="none" stroke-linejoin="miter" stroke-linecap="butt" stroke-miterlimit="4" stroke-width="0.6" stroke="#000" d="M10.405 0.554h10.79c5.533 0 10.020 4.486 10.020 10.020v10.79c0 5.533-4.486 10.020-10.020 10.020h-10.79c-5.533 0-10.020-4.486-10.020-10.020v-10.79c0-5.533 4.486-10.020 10.020-10.020z"></path>
<path fill="none" stroke-linejoin="miter" stroke-linecap="butt" stroke-miterlimit="4" stroke-width="0.6" stroke="#000" d="M18.487 10.308c-0.793-0.469-1.719-0.739-2.707-0.739-0.982 0-1.901 0.265-2.691 0.729"></path>
<path fill="none" stroke-linejoin="miter" stroke-linecap="butt" stroke-miterlimit="4" stroke-width="0.6" stroke="#000" d="M20.466 8.472c-1.316-0.965-2.94-1.534-4.697-1.534-1.74 0-3.35 0.558-4.659 1.506"></path>
<path fill="none" stroke-linejoin="miter" stroke-linecap="butt" stroke-miterlimit="4" stroke-width="0.6" stroke="#000" d="M17.81 24.614h-4.020c-2.088 0-3.781-1.693-3.781-3.782v-4.020c0-2.088 1.693-3.782 3.781-3.782h4.020c2.089 0 3.782 1.693 3.782 3.782v4.020c0 2.089-1.693 3.782-3.782 3.782z"></path>
<path fill="none" stroke-linejoin="miter" stroke-linecap="butt" stroke-miterlimit="4" stroke-width="0.6" stroke="#000" d="M14.108 18.822c0-0.934 0.757-1.692 1.692-1.692s1.692 0.758 1.692 1.692c0 0.935-0.758 1.692-1.692 1.692s-1.692-0.758-1.692-1.692z"></path>
</svg>
